<svg width="40" height="30" viewBox="0 0 40 30" fill="none" xmlns="http://www.w3.org/2000/svg">
<path d="M0 7.1542C0 5.1051 0.746792 3.39162 2.24038 2.01377C3.70284 0.671259 5.36756 0 7.23454 0C9.97277 0 12.2287 1.2012 14.0023 3.6036C15.6204 5.79402 16.4294 8.33774 16.4294 11.2347C16.4294 15.5449 15.107 19.2722 12.4621 22.4165C10.0039 25.3842 6.62777 27.5746 2.33372 28.9878V25.4372C5.10307 23.7767 7.03228 22.3105 8.12135 21.0386C9.70828 19.2722 10.5018 17.1701 10.5018 14.7324C10.5018 13.2132 10.1906 12.4536 9.56826 12.4536C9.16375 12.4536 8.54142 12.5949 7.70128 12.8776C6.86115 13.1602 6.2077 13.3015 5.74096 13.3015C4.12291 13.3015 2.76935 12.7009 1.68028 11.4997C0.560093 10.3338 0 8.88534 0 7.1542ZM23.5706 7.04821C23.5706 5.03444 24.3329 3.33863 25.8576 1.96078C27.289 0.724253 28.907 0.105989 30.7118 0.105989C33.45 0.105989 35.7215 1.32485 37.5263 3.76258C39.1754 5.98833 40 8.54971 40 11.4467C40 15.6156 38.6309 19.3075 35.8926 22.5225C33.3722 25.4548 30.0117 27.6452 25.811 29.0937V25.4372C31.1941 22.4342 33.8856 18.9719 33.8856 15.0503C33.8856 13.3898 33.6056 12.5596 33.0455 12.5596C32.641 12.5596 32.0498 12.6833 31.2719 12.9306C30.4629 13.1779 29.8405 13.3015 29.4049 13.3015C27.7869 13.3015 26.4177 12.6833 25.2975 11.4467C24.1462 10.2455 23.5706 8.77935 23.5706 7.04821Z" fill="#FEA41D"/>
</svg>
