<svg width="40" height="32" viewBox="0 0 40 32" fill="none" xmlns="http://www.w3.org/2000/svg">
<path d="M40 24.1311C40 26.3849 39.2532 28.2696 37.7596 29.7851C36.2972 31.2617 34.6324 32 32.7655 32C30.0272 32 27.7713 30.6788 25.9977 28.0364C24.3796 25.6272 23.5706 22.8294 23.5706 19.643C23.5706 14.9022 24.893 10.8027 27.5379 7.34426C29.9961 4.08015 33.3722 1.67092 37.6663 0.116576V4.02186C34.8969 5.84821 32.9677 7.46084 31.8786 8.85975C30.2917 10.8027 29.4982 13.1148 29.4982 15.796C29.4982 17.4669 29.8094 18.3024 30.4317 18.3024C30.8363 18.3024 31.4586 18.1469 32.2987 17.8361C33.1389 17.5252 33.7923 17.3698 34.259 17.3698C35.8771 17.3698 37.2306 18.0304 38.3197 19.3515C39.4399 20.6339 40 22.2271 40 24.1311ZM16.4294 24.2477C16.4294 26.4627 15.6671 28.3279 14.1424 29.8434C12.711 31.2034 11.093 31.8834 9.28821 31.8834C6.54998 31.8834 4.27849 30.5428 2.47375 27.8616C0.824582 25.4135 0 22.5962 0 19.4098C0 14.8245 1.36912 10.7638 4.10735 7.22769C6.62777 4.00243 9.98833 1.5932 14.189 0V4.02186C8.80591 7.32483 6.11435 11.133 6.11435 15.4463C6.11435 17.2726 6.3944 18.1858 6.95449 18.1858C7.359 18.1858 7.95021 18.0498 8.72812 17.7778C9.53714 17.5058 10.1595 17.3698 10.5951 17.3698C12.2131 17.3698 13.5823 18.0498 14.7025 19.4098C15.8538 20.731 16.4294 22.3437 16.4294 24.2477Z" fill="#FEA41D"/>
</svg>
